<svg width="31" height="24" viewBox="0 0 31 24" fill="none" xmlns="http://www.w3.org/2000/svg">
<g clip-path="url(#clip0_691_36)">
<path d="M19.4779 22.0989V22.0079H13.7499V22.0989L13.7509 22.1439C13.7509 22.6481 13.5506 23.1316 13.1941 23.4881C12.8376 23.8447 12.3541 24.0449 11.8499 24.0449C11.3457 24.0449 10.8622 23.8447 10.5057 23.4881C10.1492 23.1316 9.94888 22.6481 9.94888 22.1439L9.94988 22.0969V22.0079H9.29688C9.01848 22.0079 8.74845 21.9127 8.53162 21.7381C8.31479 21.5635 8.16422 21.3199 8.10488 21.0479L8.10388 21.0399L4.28688 2.96694L1.02588 2.42394C0.715306 2.3612 0.441278 2.18019 0.261693 1.91915C0.0821082 1.65811 0.0110314 1.33748 0.0634791 1.025C0.115927 0.712519 0.287791 0.432665 0.542763 0.24456C0.797734 0.0564552 1.11584 -0.0251677 1.42988 0.0169357L1.42388 0.0159357L5.50488 0.695936C6.00188 0.780936 6.39188 1.15694 6.49588 1.63894L6.49688 1.64694L7.18888 4.91094L19.0939 5.90294C19.0204 6.29401 18.9829 6.69101 18.9819 7.08894V7.09294C18.9819 7.49494 19.0169 7.88894 19.0849 8.27194L19.0789 8.23194C18.7513 8.33519 18.4732 8.55554 18.2977 8.85088C18.1223 9.14622 18.0618 9.49584 18.1279 9.83294L18.1269 9.82394L18.8459 15.0139C18.8899 15.3469 19.0419 15.6389 19.2639 15.8589C19.4659 16.0599 19.7429 16.1859 20.0499 16.1889H20.0509C20.1189 16.1889 20.1859 16.1819 20.2499 16.1699L20.2429 16.1709C20.5838 16.0818 20.8782 15.8664 21.0663 15.5684C21.2544 15.2704 21.3221 14.9121 21.2559 14.5659L21.2569 14.5749L20.8649 11.7529C21.487 12.4003 22.2337 12.915 23.06 13.2663C23.8863 13.6176 24.775 13.7981 25.6729 13.7969C25.7159 13.7969 25.7589 13.7969 25.8009 13.7909L25.8939 13.7859L25.2249 17.6879C25.2089 17.7825 25.1599 17.8684 25.0867 17.9304C25.0136 17.9925 24.9208 18.0266 24.8249 18.0269H9.95988L10.2869 19.5739H24.4439C24.7589 19.5864 25.0569 19.7203 25.2755 19.9475C25.494 20.1747 25.6162 20.4777 25.6165 20.793C25.6167 21.1083 25.495 21.4114 25.2768 21.639C25.0587 21.8666 24.7609 22.0009 24.4459 22.0139H23.2799V22.1049C23.2799 22.6091 23.0796 23.0926 22.7231 23.4491C22.3666 23.8057 21.8831 24.0059 21.3789 24.0059C20.8747 24.0059 20.3912 23.8057 20.0347 23.4491C19.6782 23.0926 19.4779 22.6091 19.4779 22.1049V22.0989ZM20.8359 22.0989C20.8361 22.1736 20.8518 22.2473 20.882 22.3156C20.9122 22.3838 20.9563 22.4451 21.0114 22.4954C21.0665 22.5457 21.1314 22.5841 21.2021 22.608C21.2728 22.6319 21.3477 22.6409 21.4221 22.6344C21.4964 22.6278 21.5686 22.6059 21.634 22.5701C21.6995 22.5342 21.7567 22.4851 21.8022 22.4259C21.8477 22.3668 21.8804 22.2988 21.8982 22.2263C21.9161 22.1538 21.9187 22.0785 21.9059 22.0049V22.0079H20.8459C20.8405 22.038 20.8378 22.0684 20.8379 22.0989H20.8359ZM11.3079 22.0989C11.3081 22.1736 11.3238 22.2473 11.354 22.3156C11.3842 22.3838 11.4283 22.4451 11.4834 22.4954C11.5385 22.5457 11.6034 22.5841 11.6741 22.608C11.7448 22.6319 11.8197 22.6409 11.8941 22.6344C11.9684 22.6278 12.0406 22.6059 12.106 22.5701C12.1715 22.5342 12.2287 22.4851 12.2742 22.4259C12.3197 22.3668 12.3524 22.2988 12.3702 22.2263C12.3881 22.1538 12.3907 22.0785 12.3779 22.0049V22.0079H11.3169C11.3119 22.0373 11.3095 22.0671 11.3099 22.0969V22.0989H11.3079ZM15.1749 8.22394C14.8338 8.31283 14.5393 8.52817 14.3512 8.82624C14.1631 9.12431 14.0954 9.48279 14.1619 9.82894L14.1609 9.81994L14.8799 15.0099C14.9239 15.3429 15.0759 15.6349 15.2979 15.8549C15.4999 16.0559 15.7769 16.1819 16.0839 16.1849H16.0849C16.1529 16.1849 16.2199 16.1779 16.2839 16.1659L16.2769 16.1669C16.6178 16.0778 16.9122 15.8624 17.1003 15.5644C17.2884 15.2664 17.3561 14.9081 17.2899 14.5619L17.2909 14.5709L16.5719 9.38094C16.5304 9.06062 16.3833 8.76327 16.1539 8.53594C15.9451 8.32735 15.663 8.20858 15.3679 8.20494H15.3669C15.2979 8.20494 15.2309 8.21194 15.1659 8.22494L15.1729 8.22394H15.1749ZM11.2089 8.22394C10.8667 8.31242 10.5711 8.52823 10.3827 8.82728C10.1942 9.12632 10.1271 9.48603 10.1949 9.83294L10.1939 9.82394L10.9129 15.0139C10.9569 15.3469 11.1089 15.6389 11.3309 15.8589C11.5329 16.0599 11.8099 16.1859 12.1169 16.1889H12.1179C12.1859 16.1889 12.2529 16.1819 12.3169 16.1699L12.3099 16.1709C12.6511 16.0822 12.9459 15.867 13.1342 15.5689C13.3225 15.2708 13.3903 14.9122 13.3239 14.5659L13.3249 14.5749L12.6049 9.38194C12.5634 9.06162 12.4163 8.76427 12.1869 8.53694C11.9783 8.32799 11.6961 8.20916 11.4009 8.20594H11.3999C11.3319 8.20594 11.2659 8.21294 11.2019 8.22494L11.2089 8.22394ZM19.9979 7.09594C19.9981 5.58951 20.5968 4.14488 21.6622 3.07986C22.1898 2.55252 22.816 2.13424 23.5052 1.84892C24.1943 1.56359 24.933 1.4168 25.6789 1.41694C26.4248 1.41707 27.1634 1.56411 27.8524 1.84968C28.5415 2.13525 29.1676 2.55375 29.695 3.08128C30.2223 3.60881 30.6406 4.23504 30.9259 4.92422C31.2112 5.6134 31.358 6.35203 31.3579 7.09794C31.3575 8.60463 30.7586 10.0495 29.6929 11.1146C28.6272 12.1797 27.1821 12.7778 25.6754 12.7774C24.1687 12.777 22.7239 12.1781 21.6587 11.1124C20.5936 10.0468 19.9955 8.60163 19.9959 7.09494L19.9979 7.09594ZM21.6249 7.09594C21.6249 7.62818 21.7297 8.15522 21.9334 8.64695C22.1371 9.13868 22.4356 9.58548 22.812 9.96184C23.1883 10.3382 23.6351 10.6367 24.1269 10.8404C24.6186 11.0441 25.1456 11.1489 25.6779 11.1489C26.2101 11.1489 26.7372 11.0441 27.2289 10.8404C27.7206 10.6367 28.1674 10.3382 28.5438 9.96184C28.9201 9.58548 29.2187 9.13868 29.4224 8.64695C29.626 8.15522 29.7309 7.62818 29.7309 7.09594C29.731 6.02075 29.304 4.98954 28.5438 4.22918C27.7837 3.46881 26.7526 3.04157 25.6774 3.04144C24.6022 3.0413 23.571 3.46829 22.8106 4.22847C22.0503 4.98865 21.623 6.01975 21.6229 7.09494L21.6249 7.09594ZM24.8649 8.71694V7.90894H24.0569C23.841 7.90894 23.634 7.82318 23.4813 7.67052C23.3286 7.51787 23.2429 7.31082 23.2429 7.09494C23.2429 6.87905 23.3286 6.67201 23.4813 6.51935C23.634 6.3667 23.841 6.28094 24.0569 6.28094H24.8649V5.47294C24.8649 5.25705 24.9506 5.05001 25.1033 4.89735C25.256 4.7447 25.463 4.65894 25.6789 4.65894C25.8948 4.65894 26.1018 4.7447 26.2545 4.89735C26.4071 5.05001 26.4929 5.25705 26.4929 5.47294V6.28094H27.3009C27.5168 6.28094 27.7238 6.3667 27.8765 6.51935C28.0291 6.67201 28.1149 6.87905 28.1149 7.09494C28.1149 7.31082 28.0291 7.51787 27.8765 7.67052C27.7238 7.82318 27.5168 7.90894 27.3009 7.90894H26.4929V8.71594C26.4929 8.93182 26.4071 9.13887 26.2545 9.29152C26.1018 9.44418 25.8948 9.52994 25.6789 9.52994C25.463 9.52994 25.256 9.44418 25.1033 9.29152C24.9506 9.13887 24.8649 8.93182 24.8649 8.71594V8.71694Z" fill="white"/>
</g>
<defs>
<clipPath id="clip0_691_36">
<rect width="31" height="24" fill="white"/>
</clipPath>
</defs>
</svg>

